<?xml version="1.0" encoding="UTF-8"?><svg id="_图层_1" xmlns="http://www.w3.org/2000/svg" xmlns:xlink="http://www.w3.org/1999/xlink" viewBox="0 0 131 20"><defs><style>.cls-1,.cls-2{fill:#fff;}.cls-3{fill:url(#_未命名的渐变_2);}.cls-2{stroke:#fff;stroke-width:.5px;}.cls-4{fill:url(#_未命名的渐变);}</style><linearGradient id="_未命名的渐变" x1="-416.29" y1="239.66" x2="-416.29" y2="238.48" gradientTransform="translate(54600 4791) scale(131 -20)" gradientUnits="userSpaceOnUse"><stop offset="0" stop-color="#ff7717"/><stop offset="1" stop-color="#ff4707"/></linearGradient><linearGradient id="_未命名的渐变_2" x1="-398.5" y1="236.69" x2="-398.5" y2="235.62" gradientTransform="translate(7982 3789) scale(20 -16)" gradientUnits="userSpaceOnUse"><stop offset="0" stop-color="#fff" stop-opacity=".15"/><stop offset="1" stop-color="#fff" stop-opacity=".05"/></linearGradient></defs><g id="_最终方案备份-2"><g id="_编组备份-3"><rect id="Fill备份-19" class="cls-4" width="131" height="20" rx="3.33" ry="3.33"/><rect id="Fill备份-20" class="cls-3" x="2" y="2" width="20" height="16" rx="2.5" ry="2.5"/><g id="_产品图标_learn-机器学习备份-10"><g id="_产品图标_learn-机器学习"><path id="Combined-Shape" class="cls-1" d="m14.81,4c.69,0,1.27.58,1.27,1.27,0,.58-.37,1.07-.89,1.21l-.37,2.25c.32.23.55.6.55,1.04,0,.69-.58,1.27-1.27,1.27-.52,0-.98-.32-1.18-.78l-1.38-.09c-.17.2-.4.32-.69.32-.49,0-.89-.4-.89-.89,0-.35.2-.66.49-.81l.12-.75c-.14-.17-.26-.37-.26-.63,0-.49.4-.89.89-.89s.89.4.89.89c0,.35-.2.66-.49.81l-.12.75s.06.09.09.12l1.38.09c.17-.29.43-.52.75-.6l.37-2.25c-.17-.12-.32-.29-.43-.49h-3.8c-.14.32-.43.58-.78.66l-.66,4.03c.46.26.78.69.84,1.24l4.92,1.09c.32-.55.89-.89,1.56-.89,1.01,0,1.79.81,1.79,1.79s-.78,1.79-1.76,1.79-1.73-.72-1.79-1.64l-4.92-1.09c-.29.46-.81.75-1.38.75-.89,0-1.61-.72-1.61-1.61,0-.81.58-1.47,1.32-1.58l.66-4.03c-.37-.23-.58-.6-.58-1.04,0-.69.58-1.27,1.27-1.27.49,0,.95.29,1.15.72h3.83c.2-.43.63-.72,1.12-.72Z"/></g></g><g id="Open-in-PAI-DSW备份-2"><g id="_形状"><path id="path-3" class="cls-1" d="m35.05,9.86c0,.77-.14,1.43-.42,1.99s-.66.99-1.15,1.29c-.49.3-1.04.45-1.66.45s-1.18-.15-1.66-.45c-.49-.3-.87-.73-1.15-1.29-.28-.56-.42-1.22-.42-1.99s.14-1.43.42-1.99c.28-.56.66-.99,1.15-1.29.49-.3,1.04-.45,1.66-.45s1.18.15,1.66.45c.49.3.87.73,1.15,1.29.28.56.42,1.22.42,1.99Zm-.92,0c0-.62-.1-1.14-.31-1.57-.2-.43-.48-.75-.83-.97-.35-.22-.74-.33-1.17-.33s-.83.11-1.18.33c-.35.22-.62.54-.83.97-.2.43-.31.95-.31,1.57s.1,1.14.31,1.57c.2.43.48.75.83.97.35.22.74.33,1.18.33s.82-.11,1.17-.33c.35-.22.63-.54.83-.97.2-.43.31-.95.31-1.57Z"/><path id="path-3-2" class="cls-2" d="m35.05,9.86c0,.77-.14,1.43-.42,1.99s-.66.99-1.15,1.29c-.49.3-1.04.45-1.66.45s-1.18-.15-1.66-.45c-.49-.3-.87-.73-1.15-1.29-.28-.56-.42-1.22-.42-1.99s.14-1.43.42-1.99c.28-.56.66-.99,1.15-1.29.49-.3,1.04-.45,1.66-.45s1.18.15,1.66.45c.49.3.87.73,1.15,1.29.28.56.42,1.22.42,1.99Zm-.92,0c0-.62-.1-1.14-.31-1.57-.2-.43-.48-.75-.83-.97-.35-.22-.74-.33-1.17-.33s-.83.11-1.18.33c-.35.22-.62.54-.83.97-.2.43-.31.95-.31,1.57s.1,1.14.31,1.57c.2.43.48.75.83.97.35.22.74.33,1.18.33s.82-.11,1.17-.33c.35-.22.63-.54.83-.97.2-.43.31-.95.31-1.57Z"/></g><g id="_形状-2"><path id="path-4" class="cls-1" d="m37.19,15.55v-7.5h.87v.87h.1c.06-.1.15-.22.26-.37.11-.15.27-.28.48-.4s.49-.17.84-.17c.45,0,.86.11,1.21.34.35.23.62.55.82.97s.29.92.29,1.5-.1,1.08-.29,1.5-.47.75-.81.98c-.35.23-.75.34-1.19.34-.35,0-.62-.06-.83-.17-.21-.11-.37-.25-.49-.4-.12-.15-.2-.28-.27-.38h-.07v2.89h-.9Zm.88-4.77c0,.4.06.76.18,1.07.12.31.29.55.52.72.23.17.5.26.83.26s.63-.09.86-.27c.23-.18.4-.43.52-.74.12-.31.17-.65.17-1.04s-.06-.72-.17-1.02-.29-.54-.51-.72c-.23-.18-.52-.26-.86-.26s-.61.08-.84.25c-.23.17-.4.4-.51.7-.12.3-.17.65-.17,1.05Z"/><path id="path-4-2" class="cls-2" d="m37.19,15.55v-7.5h.87v.87h.1c.06-.1.15-.22.26-.37.11-.15.27-.28.48-.4s.49-.17.84-.17c.45,0,.86.11,1.21.34.35.23.62.55.82.97s.29.92.29,1.5-.1,1.08-.29,1.5-.47.75-.81.98c-.35.23-.75.34-1.19.34-.35,0-.62-.06-.83-.17-.21-.11-.37-.25-.49-.4-.12-.15-.2-.28-.27-.38h-.07v2.89h-.9Zm.88-4.77c0,.4.06.76.18,1.07.12.31.29.55.52.72.23.17.5.26.83.26s.63-.09.86-.27c.23-.18.4-.43.52-.74.12-.31.17-.65.17-1.04s-.06-.72-.17-1.02-.29-.54-.51-.72c-.23-.18-.52-.26-.86-.26s-.61.08-.84.25c-.23.17-.4.4-.51.7-.12.3-.17.65-.17,1.05Z"/></g><g id="_路径"><path id="path-5" class="cls-1" d="m46.41,13.61c-.53,0-.98-.12-1.37-.35-.38-.23-.68-.56-.88-.98-.21-.42-.31-.91-.31-1.47s.1-1.05.31-1.48c.21-.43.49-.76.86-1,.37-.24.8-.36,1.3-.36.29,0,.58.05.86.15.28.1.53.25.76.47s.41.49.54.84c.13.35.2.77.2,1.28v.36h-4.24v-.75h3.33c0-.3-.06-.56-.18-.8s-.29-.42-.51-.56c-.22-.14-.47-.2-.77-.2-.32,0-.6.08-.84.24-.24.16-.42.37-.55.62-.13.25-.19.53-.19.82v.52c0,.4.07.74.21,1.01.14.28.33.49.58.63.25.14.54.22.87.22.22,0,.41-.03.58-.09.17-.06.32-.15.45-.28.13-.12.23-.28.29-.46l.87.21c-.09.28-.23.53-.43.74-.2.21-.45.37-.75.49s-.64.18-1.02.18Z"/><path id="path-5-2" class="cls-2" d="m46.41,13.61c-.53,0-.98-.12-1.37-.35-.38-.23-.68-.56-.88-.98-.21-.42-.31-.91-.31-1.47s.1-1.05.31-1.48c.21-.43.49-.76.86-1,.37-.24.8-.36,1.3-.36.29,0,.58.05.86.15.28.1.53.25.76.47s.41.49.54.84c.13.35.2.77.2,1.28v.36h-4.24v-.75h3.33c0-.3-.06-.56-.18-.8s-.29-.42-.51-.56c-.22-.14-.47-.2-.77-.2-.32,0-.6.08-.84.24-.24.16-.42.37-.55.62-.13.25-.19.53-.19.82v.52c0,.4.07.74.21,1.01.14.28.33.49.58.63.25.14.54.22.87.22.22,0,.41-.03.58-.09.17-.06.32-.15.45-.28.13-.12.23-.28.29-.46l.87.21c-.09.28-.23.53-.43.74-.2.21-.45.37-.75.49s-.64.18-1.02.18Z"/></g><g id="_路径-2"><path id="path-6" class="cls-1" d="m51.64,10.23v3.27h-.9v-5.45h.87v.86h.07c.13-.28.32-.51.59-.68.26-.17.6-.26,1.01-.26.37,0,.69.08.97.23s.49.38.65.68c.16.3.23.69.23,1.15v3.47h-.9v-3.39c0-.42-.11-.75-.33-.98-.22-.24-.52-.35-.9-.35-.26,0-.49.06-.7.17-.2.11-.37.28-.48.5s-.18.48-.18.79Z"/><path id="path-6-2" class="cls-2" d="m51.64,10.23v3.27h-.9v-5.45h.87v.86h.07c.13-.28.32-.51.59-.68.26-.17.6-.26,1.01-.26.37,0,.69.08.97.23s.49.38.65.68c.16.3.23.69.23,1.15v3.47h-.9v-3.39c0-.42-.11-.75-.33-.98-.22-.24-.52-.35-.9-.35-.26,0-.49.06-.7.17-.2.11-.37.28-.48.5s-.18.48-.18.79Z"/></g><g id="_形状-3"><path id="path-7" class="cls-1" d="m60.99,13.5v-5.45h.9v5.45h-.9Zm.46-6.35c-.17,0-.32-.06-.44-.17-.12-.11-.18-.25-.18-.41s.06-.3.18-.41c.12-.11.27-.17.44-.17s.31.06.43.17c.12.11.18.25.18.41s-.06.3-.18.41c-.12.11-.27.17-.43.17Z"/><path id="path-7-2" class="cls-2" d="m60.99,13.5v-5.45h.9v5.45h-.9Zm.46-6.35c-.17,0-.32-.06-.44-.17-.12-.11-.18-.25-.18-.41s.06-.3.18-.41c.12-.11.27-.17.44-.17s.31.06.43.17c.12.11.18.25.18.41s-.06.3-.18.41c-.12.11-.27.17-.43.17Z"/></g><g id="_路径-3"><path id="path-8" class="cls-1" d="m65.1,10.23v3.27h-.9v-5.45h.87v.86h.07c.13-.28.32-.51.59-.68s.6-.26,1.01-.26c.37,0,.69.08.97.23s.49.38.65.68.23.69.23,1.15v3.47h-.9v-3.39c0-.42-.11-.75-.33-.98s-.52-.35-.9-.35c-.26,0-.49.06-.7.17-.2.11-.37.28-.48.5s-.18.48-.18.79Z"/><path id="path-8-2" class="cls-2" d="m65.1,10.23v3.27h-.9v-5.45h.87v.86h.07c.13-.28.32-.51.59-.68s.6-.26,1.01-.26c.37,0,.69.08.97.23s.49.38.65.68.23.69.23,1.15v3.47h-.9v-3.39c0-.42-.11-.75-.33-.98s-.52-.35-.9-.35c-.26,0-.49.06-.7.17-.2.11-.37.28-.48.5s-.18.48-.18.79Z"/></g><g id="_路径-4"><path id="path-9" class="cls-1" d="m74.55,13.5v-7.27h2.5c.57,0,1.04.1,1.4.31.37.2.64.48.81.83.18.35.27.74.27,1.18s-.09.83-.27,1.18c-.18.35-.45.63-.81.84-.36.21-.83.31-1.4.31h-1.77v-.82h1.72c.38,0,.69-.07.92-.2s.4-.31.51-.54c.11-.23.16-.48.16-.77s-.05-.54-.16-.77c-.11-.22-.28-.4-.51-.53-.24-.13-.55-.19-.93-.19h-1.5v6.45h-.94Z"/><path id="path-9-2" class="cls-2" d="m74.55,13.5v-7.27h2.5c.57,0,1.04.1,1.4.31.37.2.64.48.81.83.18.35.27.74.27,1.18s-.09.83-.27,1.18c-.18.35-.45.63-.81.84-.36.21-.83.31-1.4.31h-1.77v-.82h1.72c.38,0,.69-.07.92-.2s.4-.31.51-.54c.11-.23.16-.48.16-.77s-.05-.54-.16-.77c-.11-.22-.28-.4-.51-.53-.24-.13-.55-.19-.93-.19h-1.5v6.45h-.94Z"/></g><g id="_形状-4"><path id="path-10" class="cls-1" d="m81.36,13.5h-.99l2.65-7.27h1.01l2.65,7.27h-.99l-2.14-6.07h-.06l-2.14,6.07Zm.3-2.84h3.74v.82h-3.74v-.82Z"/><path id="path-10-2" class="cls-2" d="m81.36,13.5h-.99l2.65-7.27h1.01l2.65,7.27h-.99l-2.14-6.07h-.06l-2.14,6.07Zm.3-2.84h3.74v.82h-3.74v-.82Z"/></g><g id="_路径-5"><polygon id="path-11" class="cls-1" points="89.54 6.23 89.54 13.5 88.59 13.5 88.59 6.23 89.54 6.23"/><polygon id="path-11-2" class="cls-2" points="89.54 6.23 89.54 13.5 88.59 13.5 88.59 6.23 89.54 6.23"/></g><g id="_路径-6"><polygon id="path-12" class="cls-1" points="95.1 9.45 95.1 10.28 91.9 10.28 91.9 9.45 95.1 9.45"/><polygon id="path-12-2" class="cls-2" points="95.1 9.45 95.1 10.28 91.9 10.28 91.9 9.45 95.1 9.45"/></g><g id="_形状-5"><path id="path-13" class="cls-1" d="m99.74,13.5h-2.28v-7.27h2.37c.71,0,1.31.15,1.82.44.5.29.89.71,1.16,1.25.27.54.4,1.19.4,1.94s-.14,1.41-.41,1.95c-.27.55-.67.96-1.18,1.26s-1.15.44-1.89.44Zm-1.33-.83h1.27c.59,0,1.07-.11,1.46-.34.39-.23.68-.55.87-.97.19-.42.29-.92.29-1.51s-.09-1.08-.28-1.5c-.19-.42-.47-.74-.85-.96s-.84-.33-1.4-.33h-1.37v5.61Z"/><path id="path-13-2" class="cls-2" d="m99.74,13.5h-2.28v-7.27h2.37c.71,0,1.31.15,1.82.44.5.29.89.71,1.16,1.25.27.54.4,1.19.4,1.94s-.14,1.41-.41,1.95c-.27.55-.67.96-1.18,1.26s-1.15.44-1.89.44Zm-1.33-.83h1.27c.59,0,1.07-.11,1.46-.34.39-.23.68-.55.87-.97.19-.42.29-.92.29-1.51s-.09-1.08-.28-1.5c-.19-.42-.47-.74-.85-.96s-.84-.33-1.4-.33h-1.37v5.61Z"/></g><g id="_路径-7"><path id="path-14" class="cls-1" d="m109.43,8.07c-.04-.35-.21-.63-.51-.82s-.66-.29-1.09-.29c-.31,0-.59.05-.82.15s-.42.24-.55.42c-.13.18-.19.38-.19.6,0,.19.04.35.13.48.09.13.21.25.35.34.14.09.29.16.45.22.16.06.31.1.45.14l.73.2c.2.05.42.12.66.21.24.09.46.21.67.36.21.15.39.35.52.58.14.23.2.52.2.86,0,.4-.1.76-.31,1.07-.21.32-.51.57-.9.76-.39.19-.87.28-1.43.28-.53,0-.98-.08-1.37-.25s-.69-.41-.91-.71c-.22-.31-.34-.66-.37-1.07h.97c.02.27.11.5.27.67.16.18.36.31.61.39.25.09.51.13.8.13.33,0,.62-.05.88-.16.26-.11.47-.26.62-.45.15-.19.23-.42.23-.67,0-.23-.07-.43-.2-.57-.13-.15-.3-.27-.52-.36-.22-.09-.45-.18-.71-.25l-.88-.25c-.57-.16-1.03-.39-1.36-.7s-.5-.7-.5-1.2c0-.41.11-.77.34-1.08.22-.31.52-.55.9-.72.38-.17.8-.26,1.27-.26s.9.08,1.27.25c.37.17.66.4.88.69.22.29.33.63.34,1h-.91Z"/><path id="path-14-2" class="cls-2" d="m109.43,8.07c-.04-.35-.21-.63-.51-.82s-.66-.29-1.09-.29c-.31,0-.59.05-.82.15s-.42.24-.55.42c-.13.18-.19.38-.19.6,0,.19.04.35.13.48.09.13.21.25.35.34.14.09.29.16.45.22.16.06.31.1.45.14l.73.2c.2.05.42.12.66.21.24.09.46.21.67.36.21.15.39.35.52.58.14.23.2.52.2.86,0,.4-.1.76-.31,1.07-.21.32-.51.57-.9.76-.39.19-.87.28-1.43.28-.53,0-.98-.08-1.37-.25s-.69-.41-.91-.71c-.22-.31-.34-.66-.37-1.07h.97c.02.27.11.5.27.67.16.18.36.31.61.39.25.09.51.13.8.13.33,0,.62-.05.88-.16.26-.11.47-.26.62-.45.15-.19.23-.42.23-.67,0-.23-.07-.43-.2-.57-.13-.15-.3-.27-.52-.36-.22-.09-.45-.18-.71-.25l-.88-.25c-.57-.16-1.03-.39-1.36-.7s-.5-.7-.5-1.2c0-.41.11-.77.34-1.08.22-.31.52-.55.9-.72.38-.17.8-.26,1.27-.26s.9.08,1.27.25c.37.17.66.4.88.69.22.29.33.63.34,1h-.91Z"/></g><g id="_路径-8"><polygon id="path-15" class="cls-1" points="114 13.5 112.01 6.23 112.97 6.23 114.47 12.07 114.54 12.07 116.06 6.23 117.1 6.23 118.63 12.07 118.7 12.07 120.19 6.23 121.16 6.23 119.16 13.5 118.19 13.5 116.61 7.8 116.55 7.8 114.97 13.5 114 13.5"/><polygon id="path-15-2" class="cls-2" points="114 13.5 112.01 6.23 112.97 6.23 114.47 12.07 114.54 12.07 116.06 6.23 117.1 6.23 118.63 12.07 118.7 12.07 120.19 6.23 121.16 6.23 119.16 13.5 118.19 13.5 116.61 7.8 116.55 7.8 114.97 13.5 114 13.5"/></g></g></g></g></svg>